<svg data-v-423bf9ae="" xmlns="http://www.w3.org/2000/svg" viewBox="0 0 498 90" class="iconLeft"><!----><!----><!----><g data-v-423bf9ae="" id="d76f1b08-f929-42fb-9a11-f0770fff77c2" fill="black" transform="matrix(4.528301886792453,0,0,4.528301886792453,157.02130184645924,-0.8037752970209624)"><path d="M0.81 14Q0.55 14 0.55 13.73L0.55 13.73L0.55 4.47Q0.55 4.20 0.81 4.20L0.81 4.20L2.91 4.20Q3.18 4.20 3.18 4.47L3.18 4.47L3.18 7.67Q3.18 7.74 3.23 7.76Q3.28 7.77 3.32 7.71L3.32 7.71L5.68 4.37Q5.80 4.20 6.01 4.20L6.01 4.20L8.39 4.20Q8.60 4.20 8.60 4.35L8.60 4.35Q8.60 4.45 8.54 4.52L8.54 4.52L5.71 8.47Q5.66 8.55 5.70 8.62L5.70 8.62L8.67 13.68Q8.71 13.76 8.71 13.83L8.71 13.83Q8.71 14 8.48 14L8.48 14L6.12 14Q5.91 14 5.81 13.82L5.81 13.82L3.92 10.46Q3.89 10.40 3.84 10.40Q3.79 10.40 3.77 10.46L3.77 10.46L3.22 11.28Q3.18 11.37 3.18 11.42L3.18 11.42L3.18 13.73Q3.18 14 2.91 14L2.91 14L0.81 14ZM10.79 6.43Q10.12 6.43 9.70 6.02Q9.28 5.61 9.28 4.96L9.28 4.96Q9.28 4.30 9.70 3.89Q10.12 3.49 10.79 3.49L10.79 3.49Q11.48 3.49 11.89 3.89Q12.31 4.30 12.31 4.96L12.31 4.96Q12.31 5.61 11.89 6.02Q11.48 6.43 10.79 6.43L10.79 6.43ZM9.74 14Q9.48 14 9.48 13.73L9.48 13.73L9.48 6.99Q9.48 6.72 9.74 6.72L9.74 6.72L11.84 6.72Q12.11 6.72 12.11 6.99L12.11 6.99L12.11 13.73Q12.11 14 11.84 14L11.84 14L9.74 14ZM17.91 8.55Q17.91 8.82 17.64 8.82L17.64 8.82L16.58 8.82Q16.46 8.82 16.46 8.93L16.46 8.93L16.46 11.00Q16.46 11.70 16.97 11.70L16.97 11.70L17.43 11.70Q17.70 11.70 17.70 11.97L17.70 11.97L17.70 13.66Q17.70 13.90 17.44 13.93L17.44 13.93Q16.90 13.97 16.44 13.97L16.44 13.97Q15.16 13.97 14.56 13.58Q13.96 13.19 13.94 12.10L13.94 12.10L13.94 8.93Q13.94 8.82 13.83 8.82L13.83 8.82L13.17 8.82Q12.91 8.82 12.91 8.55L12.91 8.55L12.91 6.99Q12.91 6.72 13.17 6.72L13.17 6.72L13.83 6.72Q13.94 6.72 13.94 6.61L13.94 6.61L13.94 5.03Q13.94 4.76 14.21 4.76L14.21 4.76L16.20 4.76Q16.46 4.76 16.46 5.03L16.46 5.03L16.46 6.61Q16.46 6.72 16.58 6.72L16.58 6.72L17.64 6.72Q17.91 6.72 17.91 6.99L17.91 6.99L17.91 8.55ZM22.08 14.11Q20.89 14.11 20.01 13.53Q19.12 12.95 18.72 11.91L18.72 11.91Q18.44 11.20 18.44 10.32L18.44 10.32Q18.44 9.45 18.72 8.74L18.72 8.74Q19.11 7.74 20.01 7.17Q20.90 6.61 22.08 6.61L22.08 6.61Q23.27 6.61 24.19 7.20Q25.10 7.80 25.42 8.69L25.42 8.69Q25.54 8.99 25.55 9.17L25.55 9.17L25.55 9.20Q25.55 9.42 25.31 9.46L25.31 9.46L23.25 9.79Q23.24 9.79 23.22 9.79Q23.20 9.80 23.17 9.79L23.17 9.79Q22.99 9.79 22.96 9.62L22.96 9.62L22.90 9.42Q22.83 9.18 22.60 9.02Q22.37 8.86 22.06 8.86L22.06 8.86Q21.50 8.86 21.27 9.37L21.27 9.37Q21.10 9.72 21.10 10.33L21.10 10.33Q21.10 10.91 21.25 11.30L21.25 11.30Q21.49 11.86 22.06 11.86L22.06 11.86Q22.65 11.86 22.88 11.28L22.88 11.28Q22.89 11.24 22.90 11.22Q22.90 11.20 22.90 11.20L22.90 11.20L22.90 11.20Q22.92 11.13 23.01 11.05Q23.10 10.96 23.21 10.98L23.21 10.98L25.28 11.31Q25.55 11.35 25.51 11.61L25.51 11.61Q25.48 11.80 25.42 11.98L25.42 11.98Q25.06 13.01 24.16 13.56Q23.25 14.11 22.08 14.11L22.08 14.11ZM30.65 6.61Q31.35 6.61 31.91 6.92Q32.47 7.22 32.80 7.82Q33.12 8.41 33.12 9.23L33.12 9.23L33.12 13.73Q33.12 14 32.86 14L32.86 14L30.76 14Q30.49 14 30.49 13.73L30.49 13.73L30.49 9.80Q30.49 9.38 30.28 9.12Q30.06 8.86 29.71 8.86L29.71 8.86Q29.34 8.86 29.13 9.12Q28.91 9.38 28.91 9.80L28.91 9.80L28.91 13.73Q28.91 14 28.64 14L28.64 14L26.54 14Q26.28 14 26.28 13.73L26.28 13.73L26.28 4.47Q26.28 4.20 26.54 4.20L26.54 4.20L28.64 4.20Q28.91 4.20 28.91 4.47L28.91 4.47L28.91 7.35Q28.91 7.42 28.95 7.44Q28.98 7.46 29.02 7.41L29.02 7.41Q29.55 6.61 30.65 6.61L30.65 6.61ZM37.84 11.89Q38.26 11.89 38.63 11.78Q38.99 11.68 39.23 11.49L39.23 11.49Q39.34 11.41 39.41 11.41L39.41 11.41Q39.51 11.41 39.59 11.52L39.59 11.52L40.54 12.84Q40.61 12.95 40.61 13.01L40.61 13.01Q40.61 13.10 40.52 13.20L40.52 13.20Q40.01 13.66 39.29 13.89Q38.57 14.11 37.74 14.11L37.74 14.11Q36.69 14.11 35.89 13.74Q35.08 13.37 34.58 12.68L34.58 12.68Q33.88 11.70 33.88 10.30L33.88 10.30Q33.88 9.70 34.03 9.13L34.03 9.13Q34.36 7.99 35.30 7.30Q36.25 6.61 37.49 6.61L37.49 6.61Q38.93 6.61 39.83 7.54Q40.73 8.47 41.01 10.08L41.01 10.08Q41.08 10.42 41.09 10.75L41.09 10.75Q41.09 11.02 40.82 11.02L40.82 11.02L36.67 11.02Q36.55 11.02 36.57 11.14L36.57 11.14L36.64 11.33Q36.90 11.89 37.84 11.89L37.84 11.89ZM37.44 8.86Q36.86 8.86 36.64 9.42L36.64 9.42L36.60 9.53L36.58 9.58Q36.58 9.66 36.69 9.66L36.69 9.66L38.21 9.66Q38.32 9.66 38.32 9.58L38.32 9.58Q38.32 9.53 38.30 9.49Q38.28 9.45 38.26 9.42L38.26 9.42Q38.02 8.86 37.44 8.86L37.44 8.86ZM46.16 6.61Q46.86 6.61 47.42 6.92Q47.98 7.22 48.31 7.82Q48.64 8.41 48.64 9.23L48.64 9.23L48.64 13.73Q48.64 14 48.37 14L48.37 14L46.27 14Q46.00 14 46.00 13.73L46.00 13.73L46.00 9.80Q46.00 9.38 45.79 9.12Q45.57 8.86 45.22 8.86L45.22 8.86Q44.86 8.86 44.64 9.12Q44.42 9.38 44.42 9.80L44.42 9.80L44.42 13.73Q44.42 14 44.16 14L44.16 14L42.06 14Q41.79 14 41.79 13.73L41.79 13.73L41.79 6.99Q41.79 6.72 42.06 6.72L42.06 6.72L44.16 6.72Q44.42 6.72 44.42 6.99L44.42 6.99L44.42 7.35Q44.42 7.42 44.46 7.44Q44.49 7.46 44.53 7.41L44.53 7.41Q45.07 6.61 46.16 6.61L46.16 6.61ZM52.67 14Q52.40 14 52.40 13.73L52.40 13.73L52.40 4.47Q52.40 4.20 52.67 4.20L52.67 4.20L54.77 4.20Q55.03 4.20 55.03 4.47L55.03 4.47L55.03 11.63Q55.03 11.75 55.15 11.75L55.15 11.75L59.37 11.75Q59.64 11.75 59.64 12.01L59.64 12.01L59.64 13.73Q59.64 14 59.37 14L59.37 14L52.67 14ZM63.80 14.11Q62.47 14.11 61.55 13.40Q60.63 12.68 60.34 11.47L60.34 11.47Q60.20 10.96 60.20 10.35L60.20 10.35Q60.20 9.66 60.37 9.10L60.37 9.10Q60.70 7.94 61.61 7.27Q62.51 6.61 63.81 6.61L63.81 6.61Q65.11 6.61 66.00 7.27Q66.89 7.94 67.23 9.07L67.23 9.07Q67.40 9.66 67.40 10.32L67.40 10.32Q67.40 10.85 67.28 11.38L67.28 11.38Q66.99 12.64 66.07 13.38Q65.16 14.11 63.80 14.11L63.80 14.11ZM63.80 11.86Q64.16 11.86 64.39 11.61Q64.61 11.37 64.69 10.96L64.69 10.96Q64.75 10.70 64.75 10.33L64.75 10.33Q64.75 10.01 64.68 9.69L64.68 9.69Q64.47 8.86 63.80 8.86L63.80 8.86Q63.10 8.86 62.92 9.69L62.92 9.69Q62.85 9.93 62.85 10.33L62.85 10.33Q62.85 10.70 62.90 10.96L62.90 10.96Q63.11 11.86 63.80 11.86L63.80 11.86ZM72.58 6.99Q72.58 6.72 72.84 6.72L72.84 6.72L74.94 6.72Q75.21 6.72 75.21 6.99L75.21 6.99L75.21 13.05Q75.21 15.05 74.05 15.90Q72.90 16.74 71.15 16.74L71.15 16.74Q70.53 16.74 69.72 16.62L69.72 16.62Q69.61 16.60 69.55 16.52Q69.48 16.44 69.50 16.32L69.50 16.32L69.58 14.55Q69.59 14.32 69.78 14.32L69.78 14.32Q69.85 14.32 69.89 14.34L69.89 14.34Q70.43 14.46 70.94 14.46L70.94 14.46Q71.57 14.46 71.99 14.22Q72.41 13.99 72.53 13.48L72.53 13.48L72.53 13.45Q72.53 13.40 72.47 13.37Q72.41 13.34 72.35 13.38L72.35 13.38Q71.88 13.75 71.09 13.75L71.09 13.75Q68.85 13.75 68.24 11.93L68.24 11.93Q68.00 11.23 68.00 10.29L68.00 10.29Q68.00 9.25 68.29 8.53L68.29 8.53Q68.63 7.64 69.35 7.13Q70.07 6.61 71.01 6.61L71.01 6.61Q71.95 6.61 72.45 7.14L72.45 7.14Q72.51 7.20 72.54 7.18Q72.58 7.17 72.58 7.10L72.58 7.10L72.58 6.99ZM72.44 11.24Q72.58 10.88 72.58 10.28L72.58 10.28Q72.58 9.72 72.42 9.37L72.42 9.37Q72.18 8.86 71.62 8.86L71.62 8.86Q71.13 8.86 70.88 9.35L70.88 9.35Q70.66 9.74 70.66 10.32L70.66 10.32Q70.66 10.88 70.84 11.23L70.84 11.23Q71.09 11.72 71.65 11.72L71.65 11.72Q72.21 11.72 72.44 11.24L72.44 11.24Z"></path></g><!----><g data-v-423bf9ae="" id="c9c969a5-7967-40cb-b6ee-cdd2d95bb701" transform="matrix(4.500375969824749,0,0,4.500375969824749,-1.5059504641817512,-27.00460592488527)" stroke="none" fill="black"><path style="line-height:normal;text-indent:0;text-align:start;text-decoration-line:none;text-decoration-style:solid;text-decoration-color:#000;text-transform:none;block-progression:tb;white-space:normal;isolation:auto;mix-blend-mode:normal;solid-color:#000;solid-opacity:1" d="M13.967 13.466c-.71.83-.577 2.51.3 3.266.984.984 2.577 1.038 3.54.076.962-.962.787-2.734-.077-3.537-.92-.855-2.488-1.296-3.763.195zm1.97.029c.384.01.775.17 1.086.48.622.622.636 1.564.077 2.123-.56.56-1.503.546-2.125-.076-.621-.62-.634-1.561-.079-2.12h.002a1.4 1.4 0 011.04-.405z" color="#000" font-weight="400" font-family="sans-serif" overflow="visible"></path><path style="line-height:normal;text-indent:0;text-align:start;text-decoration-line:none;text-decoration-style:solid;text-decoration-color:#000;text-transform:none;block-progression:tb;white-space:normal;isolation:auto;mix-blend-mode:normal;solid-color:#000;solid-opacity:1" d="M4.992 7.5a.5.5 0 00-.492.507v4.484a.5.5 0 101 0V8.007a.5.5 0 00-.508-.508z" color="#000" font-weight="400" font-family="sans-serif" overflow="visible" stroke-linecap="round"></path><path style="line-height:normal;text-indent:0;text-align:start;text-decoration-line:none;text-decoration-style:solid;text-decoration-color:#000;text-transform:none;block-progression:tb;white-space:normal;isolation:auto;mix-blend-mode:normal;solid-color:#000;solid-opacity:1" d="M.5 12.5v1.571c0 .584.333 1.09.793 1.418.46.329 1.057.51 1.707.51.65 0 1.245-.181 1.705-.51.46-.328.795-.834.795-1.418V12.5h-5zm1 1h3v.571c0 .208-.112.416-.375.604s-.667.324-1.125.324c-.458 0-.862-.136-1.125-.324s-.375-.396-.375-.604V13.5zM1.5 18.5v6.317c0 .375.213.695.482.89.27.193.605.292.963.292h.11c.358 0 .692-.099.96-.293.27-.194.485-.514.485-.889V18.5h-3zm1 1h1v5.317s.002.026-.07.078a.668.668 0 01-.375.104h-.11a.68.68 0 01-.377-.103c-.072-.053-.068-.075-.068-.079V19.5z" color="#000" font-weight="400" font-family="sans-serif" overflow="visible" stroke-linecap="round"></path><path style="line-height:normal;text-indent:0;text-align:start;text-decoration-line:none;text-decoration-style:solid;text-decoration-color:#000;text-transform:none;block-progression:tb;white-space:normal;isolation:auto;mix-blend-mode:normal;solid-color:#000;solid-opacity:1" d="M2.5 15v4.5h1V15h-1z" color="#000" font-weight="400" font-family="sans-serif" overflow="visible"></path><path style="line-height:normal;text-indent:0;text-align:start;text-decoration-line:none;text-decoration-style:solid;text-decoration-color:#000;text-transform:none;block-progression:tb;white-space:normal;isolation:auto;mix-blend-mode:normal;solid-color:#000;solid-opacity:1" d="M2.992 7.5a.5.5 0 00-.492.507v4.484a.5.5 0 101 0V8.007a.5.5 0 00-.508-.508zM.992 7.5a.5.5 0 00-.492.507v4.484a.5.5 0 101 0V8.007a.5.5 0 00-.508-.508z" color="#000" font-weight="400" font-family="sans-serif" overflow="visible" stroke-linecap="round"></path><path style="line-height:normal;text-indent:0;text-align:start;text-decoration-line:none;text-decoration-style:solid;text-decoration-color:#000;text-transform:none;block-progression:tb;white-space:normal;isolation:auto;mix-blend-mode:normal;solid-color:#000;solid-opacity:1" d="M30.977 7.5a.5.5 0 00-.266.085c-2.552 1.735-3.175 4.255-3.211 6.238a.5.5 0 000 .01v5.104a.5.5 0 00.5.5h.5l.008 6.062a.5.5 0 00.5.5H31a.5.5 0 00.5-.5l-.002-6.513v-.01a.5.5 0 00-.002-.088.5.5 0 000-.012l-.004-10.881a.5.5 0 00-.516-.5zm-.485 1.616l.004 9.32h-1.418a.5.5 0 00-.16 0H28.5v-4.595c.028-1.547.467-3.289 1.992-4.725zm-.992 10.32h.998L30.5 25h-.994l-.006-5.562z" color="#000" font-weight="400" font-family="sans-serif" overflow="visible" stroke-linecap="round" stroke-linejoin="round"></path><path style="line-height:normal;text-indent:0;text-align:start;text-decoration-line:none;text-decoration-style:solid;text-decoration-color:#000;text-transform:none;block-progression:tb;white-space:normal;isolation:auto;mix-blend-mode:normal;solid-color:#000;solid-opacity:1" d="M15.264 9.5c-2.353 0-4.252 1.992-4.25 4.413 0 .358.08.78.13 1.197.052.418.041.844.026.89-.352 1.048-.138 2.024.453 2.679.59.654 1.487 1 2.465 1.08h.01c.392.024.803.348 1.306.777.411.35.931.702 1.563.844l.035.117h.375c.666 0 1.155-.232 1.496-.523.341-.291.57-.586.994-.889.38-.271 1-.624 1.547-1.062.546-.44 1.086-1.006 1.086-1.787 0-.615-.433-.982-.709-1.24-.276-.26-.393-.412-.393-.499v-.014l-.002-.014c-.002-.045.13-.359.338-.73.208-.372.487-.856.338-1.446-.133-.527-.512-.865-.855-1.115-.343-.25-.68-.444-.883-.635-.126-.118-.206-.42-.434-.83-.228-.409-.758-.826-1.543-.826-.34 0-.57.138-.724.205-.155.068-.197.061-.186.064-.593-.16-1.248-.66-2.183-.66zm-.002 1c.524 0 1.09.4 1.923.626.363.098.662-.033.85-.115.189-.083.305-.121.324-.121.528 0 .543.088.668.312s.207.682.623 1.072c.331.311.702.514.979.715.277.202.429.37.474.551.03.12-.051.373-.242.713-.187.336-.479.707-.457 1.256.007.603.431.964.703 1.219.275.257.393.41.393.51 0 .285-.257.64-.713 1.007-.456.367-1.046.702-1.502 1.028-.531.379-.83.742-1.062.941-.233.199-.365.285-.846.285-.428 0-.83-.301-1.324-.723-.494-.42-1.065-.964-1.897-1.013h.012c-.787-.064-1.44-.351-1.803-.754s-.51-.908-.248-1.69c.15-.45.077-.882.022-1.33-.056-.448-.125-.903-.125-1.074-.001-1.903 1.46-3.415 3.248-3.414z" color="#000" font-weight="400" font-family="sans-serif" overflow="visible"></path><path style="line-height:normal;text-indent:0;text-align:start;text-decoration-line:none;text-decoration-style:solid;text-decoration-color:#000;text-transform:none;block-progression:tb;white-space:normal;isolation:auto;mix-blend-mode:normal;solid-color:#000;solid-opacity:1" d="M15.271 6.08a9.462 9.462 0 00-3.328 1.083.5.5 0 10.479.877 8.496 8.496 0 0111.04 2.584 8.495 8.495 0 01-1.349 11.258 8.491 8.491 0 01-11.336-.098 8.495 8.495 0 01-1.156-11.28.5.5 0 10-.809-.587 9.509 9.509 0 001.292 12.607 9.507 9.507 0 0012.671.108 9.507 9.507 0 001.506-12.582 9.507 9.507 0 00-9.01-3.97z" color="#000" font-weight="400" font-family="sans-serif" overflow="visible" stroke-linecap="round" stroke-linejoin="round"></path><path d="M10.01 8.777a.5.5 0 00.5.5.5.5 0 00.5-.5.5.5 0 00-.5-.5.5.5 0 00-.5.5z" stroke-width=".265" stroke-linecap="round" stroke-linejoin="round"></path></g><!----></svg>