<svg data-v-423bf9ae="" xmlns="http://www.w3.org/2000/svg" viewBox="0 0 523.7333170572917 163" class="iconAbove"><!----><!----><!----><g data-v-423bf9ae="" id="019f79a0-43fa-4943-9afb-f0708c3a49c0" fill="white" transform="matrix(4.44444465637207,0,0,4.44444465637207,-2.222255229949951,95.53333282470703)"><path d="M3.64 3.63L3.64 11.49L4.96 11.79L4.96 12.60L0.50 12.60L0.50 11.79L1.82 11.49L1.82 3.63L0.50 3.33L0.50 2.52L4.96 2.52L4.96 3.33L3.64 3.63ZM6.97 11.55L6.97 6.09L5.89 5.82L5.89 5.04L8.33 5.04L8.64 6.44L8.69 6.44Q9.10 5.73 9.78 5.31Q10.46 4.90 11.23 4.90L11.23 4.90Q11.82 4.90 12.26 5.12Q12.70 5.33 12.91 5.66L12.91 5.66Q13.13 6.01 13.27 6.58L13.27 6.58Q13.72 5.78 14.43 5.34Q15.15 4.90 15.96 4.90L15.96 4.90Q16.52 4.90 16.97 5.12Q17.42 5.33 17.65 5.71L17.65 5.71Q17.78 5.91 17.86 6.19Q17.95 6.47 18.00 6.88Q18.06 7.29 18.08 7.85Q18.10 8.41 18.10 9.17L18.10 9.17L18.10 11.55L19.18 11.82L19.18 12.60L15.39 12.60L15.39 11.82L16.32 11.55L16.32 8.85Q16.32 8.40 16.31 8.07Q16.30 7.74 16.27 7.50Q16.24 7.25 16.20 7.08Q16.16 6.92 16.10 6.79L16.10 6.79Q15.96 6.45 15.73 6.32Q15.50 6.19 15.25 6.19L15.25 6.19Q14.88 6.19 14.60 6.29Q14.32 6.38 14.06 6.62L14.06 6.62Q13.75 6.90 13.60 7.27Q13.45 7.64 13.43 8.23L13.43 8.23L13.43 11.55L14.36 11.82L14.36 12.60L10.71 12.60L10.71 11.82L11.65 11.55L11.65 8.85Q11.65 8.40 11.63 8.07Q11.62 7.74 11.59 7.50Q11.56 7.25 11.52 7.08Q11.48 6.92 11.42 6.79L11.42 6.79Q11.28 6.45 11.05 6.32Q10.82 6.19 10.57 6.19L10.57 6.19Q10.21 6.19 9.93 6.29Q9.65 6.38 9.38 6.62L9.38 6.62Q9.07 6.90 8.93 7.27Q8.78 7.64 8.75 8.23L8.75 8.23L8.75 11.55L9.69 11.82L9.69 12.60L5.89 12.60L5.89 11.82L6.97 11.55ZM19.81 10.95L19.81 10.95Q19.81 10.37 20.07 9.93Q20.33 9.49 20.87 9.16Q21.41 8.82 22.24 8.58Q23.07 8.34 24.22 8.16L24.22 8.16Q24.15 7.46 24.06 7.09Q23.97 6.72 23.81 6.44L23.81 6.44Q23.62 6.12 23.36 5.92Q23.10 5.73 22.69 5.73L22.69 5.73Q22.40 5.73 22.16 5.84Q21.91 5.95 21.83 6.15L21.83 6.15Q22.02 6.26 22.10 6.46Q22.18 6.66 22.18 6.82L22.18 6.82Q22.18 7.17 21.87 7.44Q21.56 7.71 21.13 7.71L21.13 7.71Q20.68 7.71 20.43 7.43Q20.19 7.14 20.19 6.71L20.19 6.71Q20.19 6.27 20.43 5.94Q20.66 5.60 21.06 5.37Q21.45 5.14 21.93 5.02Q22.41 4.90 22.90 4.90L22.90 4.90Q23.56 4.90 24.09 5.09Q24.61 5.28 24.93 5.56L24.93 5.56Q26.04 6.54 26.04 8.67L26.04 8.67L26.04 10.49Q26.04 11.19 26.13 11.45Q26.22 11.70 26.53 11.70L26.53 11.70L27.16 11.70L27.16 12.33Q25.87 12.74 25.21 12.74L25.21 12.74Q24.98 12.74 24.83 12.67Q24.68 12.60 24.60 12.43Q24.51 12.26 24.48 11.97Q24.44 11.68 24.44 11.21L24.44 11.21L24.39 11.21Q23.95 11.93 23.24 12.33Q22.53 12.74 21.70 12.74L21.70 12.74Q20.82 12.74 20.31 12.26Q19.81 11.79 19.81 10.95ZM22.55 11.72L22.55 11.72Q22.85 11.72 23.21 11.53Q23.56 11.34 23.83 10.98L23.83 10.98Q23.98 10.78 24.12 10.42Q24.26 10.05 24.26 9.55L24.26 9.55Q24.26 9.38 24.25 9.18Q24.23 8.97 24.21 8.78L24.21 8.78Q23.48 8.93 23.00 9.11Q22.51 9.28 22.22 9.49Q21.92 9.70 21.80 9.97Q21.67 10.25 21.67 10.60L21.67 10.60Q21.67 11.21 21.95 11.47Q22.23 11.72 22.55 11.72ZM34.47 12.68L34.47 12.68Q34.47 13.97 33.54 14.57Q32.62 15.18 30.60 15.18L30.60 15.18Q29.93 15.18 29.34 15.08Q28.76 14.99 28.32 14.78Q27.87 14.57 27.62 14.24Q27.37 13.90 27.37 13.41L27.37 13.41Q27.37 12.77 27.78 12.38Q28.18 11.98 28.98 11.96L28.98 11.96L28.98 11.90Q27.92 11.61 27.92 10.84L27.92 10.84Q27.92 10.63 27.99 10.39Q28.07 10.16 28.25 9.96Q28.42 9.76 28.69 9.60Q28.97 9.45 29.36 9.39L29.36 9.39Q28.60 9.21 28.19 8.64Q27.78 8.08 27.78 7.31L27.78 7.31Q27.78 6.19 28.53 5.54Q29.27 4.90 30.70 4.90L30.70 4.90Q31.16 4.90 31.52 4.94Q31.88 4.98 32.16 5.07Q32.45 5.15 32.68 5.27Q32.90 5.39 33.11 5.54L33.11 5.54L33.59 5.38L34.87 4.76L35.11 4.76L35.11 6.20L34.87 6.20L33.89 6.09L33.54 6.09Q33.82 6.52 33.82 7.22L33.82 7.22Q33.82 8.37 33.12 9.04Q32.41 9.70 31.05 9.70L31.05 9.70Q30.90 9.70 30.77 9.70Q30.63 9.69 30.49 9.67L30.49 9.67Q29.95 9.74 29.62 9.92Q29.29 10.09 29.29 10.42L29.29 10.42Q29.29 10.67 29.55 10.76Q29.81 10.85 30.52 10.85L30.52 10.85L32.14 10.85Q34.47 10.85 34.47 12.68ZM31.11 12.14L30.62 12.14Q29.68 12.14 29.26 12.43Q28.84 12.73 28.84 13.20L28.84 13.20Q28.84 14.27 30.84 14.27L30.84 14.27Q31.92 14.27 32.48 13.96Q33.04 13.65 33.04 13.03L33.04 13.03Q33.04 12.54 32.61 12.34Q32.17 12.14 31.11 12.14L31.11 12.14ZM29.43 7.25L29.43 7.25Q29.43 8.05 29.76 8.46Q30.10 8.86 30.73 8.86L30.73 8.86Q31.49 8.86 31.83 8.46Q32.17 8.05 32.17 7.25L32.17 7.25Q32.17 6.51 31.83 6.13Q31.49 5.75 30.73 5.75L30.73 5.75Q30.10 5.75 29.76 6.13Q29.43 6.51 29.43 7.25ZM42.38 9.02L37.49 9.02Q37.49 9.97 37.77 10.60L37.77 10.60Q38.22 11.59 39.31 11.59L39.31 11.59Q39.94 11.59 40.54 11.32Q41.15 11.05 41.58 10.47L41.58 10.47L42.34 11.06Q41.85 11.76 41.01 12.25Q40.18 12.74 38.96 12.74L38.96 12.74Q37.93 12.74 37.19 12.33Q36.46 11.91 36.06 11.12L36.06 11.12Q35.85 10.68 35.76 10.16Q35.66 9.63 35.66 9.00L35.66 9.00Q35.66 7.04 36.55 5.97Q37.45 4.90 39.12 4.90L39.12 4.90Q39.87 4.90 40.49 5.13Q41.10 5.36 41.53 5.79Q41.96 6.22 42.19 6.84Q42.42 7.46 42.42 8.25L42.42 8.25Q42.42 8.40 42.41 8.55Q42.41 8.69 42.38 9.02L42.38 9.02ZM39.09 5.87L39.09 5.87Q37.65 5.87 37.51 8.12L37.51 8.12L40.59 8.12L40.59 7.76Q40.59 6.85 40.19 6.36Q39.80 5.87 39.09 5.87ZM47.96 11.49L47.96 3.63L46.79 3.33L46.79 2.52L50.02 2.52L54.70 9.91L54.70 3.63L53.52 3.33L53.52 2.52L57.20 2.52L57.20 3.33L56.03 3.63L56.03 12.60L54.47 12.60L49.29 4.56L49.29 11.49L50.47 11.79L50.47 12.60L46.79 12.60L46.79 11.79L47.96 11.49ZM65.17 8.82L65.17 8.82Q65.17 9.72 64.91 10.51Q64.65 11.30 64.16 11.83L64.16 11.83Q63.70 12.32 63.06 12.53Q62.41 12.74 61.53 12.74L61.53 12.74Q60.65 12.74 60.00 12.53Q59.36 12.32 58.90 11.83L58.90 11.83Q58.41 11.30 58.15 10.51Q57.89 9.72 57.89 8.82L57.89 8.82Q57.89 7.92 58.15 7.13Q58.41 6.34 58.90 5.81L58.90 5.81Q59.36 5.32 60.00 5.11Q60.65 4.90 61.53 4.90L61.53 4.90Q62.41 4.90 63.06 5.11Q63.70 5.32 64.16 5.81L64.16 5.81Q64.65 6.34 64.91 7.13Q65.17 7.92 65.17 8.82ZM60.26 11.24L60.26 11.24Q60.63 11.80 61.53 11.80L61.53 11.80Q62.43 11.80 62.80 11.24L62.80 11.24Q63.25 10.56 63.25 8.82L63.25 8.82Q63.25 7.08 62.80 6.40L62.80 6.40Q62.43 5.84 61.53 5.84L61.53 5.84Q60.63 5.84 60.26 6.40L60.26 6.40Q59.81 7.08 59.81 8.82L59.81 8.82Q59.81 10.56 60.26 11.24ZM65.76 5.95L65.76 5.24L67.13 5.04L67.30 3.30L68.89 3.08L68.89 5.04L70.69 5.04L70.69 5.95L68.89 5.95L68.89 10.53Q68.89 11.00 68.91 11.18Q68.92 11.35 68.96 11.47L68.96 11.47Q69.01 11.55 69.12 11.59Q69.23 11.63 69.48 11.63L69.48 11.63L70.46 11.63L70.46 12.25Q69.65 12.50 69.03 12.62Q68.40 12.74 68.04 12.74L68.04 12.74Q67.41 12.74 67.23 12.22L67.23 12.22Q67.16 12.05 67.14 11.79Q67.12 11.54 67.12 11.00L67.12 11.00L67.12 5.95L65.76 5.95ZM81.05 9.42L79.91 9.42L79.67 8.11L77.76 8.11L77.76 11.45L79.39 11.72L79.39 12.60L74.62 12.60L74.62 11.79L75.94 11.45L75.94 3.63L74.62 3.33L74.62 2.52L82.92 2.52L82.92 5.52L81.75 5.52L81.30 3.54L77.76 3.54L77.76 7.06L79.67 7.06L79.91 5.73L81.05 5.73L81.05 9.42ZM90.62 8.82L90.62 8.82Q90.62 9.72 90.36 10.51Q90.10 11.30 89.61 11.83L89.61 11.83Q89.15 12.32 88.51 12.53Q87.86 12.74 86.98 12.74L86.98 12.74Q86.10 12.74 85.46 12.53Q84.81 12.32 84.35 11.83L84.35 11.83Q83.86 11.30 83.60 10.51Q83.34 9.72 83.34 8.82L83.34 8.82Q83.34 7.92 83.60 7.13Q83.86 6.34 84.35 5.81L84.35 5.81Q84.81 5.32 85.46 5.11Q86.10 4.90 86.98 4.90L86.98 4.90Q87.86 4.90 88.51 5.11Q89.15 5.32 89.61 5.81L89.61 5.81Q90.10 6.34 90.36 7.13Q90.62 7.92 90.62 8.82ZM85.71 11.24L85.71 11.24Q86.09 11.80 86.98 11.80L86.98 11.80Q87.88 11.80 88.26 11.24L88.26 11.24Q88.70 10.56 88.70 8.82L88.70 8.82Q88.70 7.08 88.26 6.40L88.26 6.40Q87.88 5.84 86.98 5.84L86.98 5.84Q86.09 5.84 85.71 6.40L85.71 6.40Q85.26 7.08 85.26 8.82L85.26 8.82Q85.26 10.56 85.71 11.24ZM94.19 5.04L94.19 8.79Q94.19 9.24 94.20 9.57Q94.21 9.90 94.23 10.14Q94.25 10.39 94.28 10.56Q94.32 10.72 94.36 10.85L94.36 10.85Q94.47 11.19 94.73 11.36Q94.99 11.54 95.26 11.54L95.26 11.54Q95.63 11.54 95.94 11.40Q96.25 11.26 96.52 11.02L96.52 11.02Q96.82 10.74 96.97 10.37Q97.12 10.00 97.15 9.41L97.15 9.41L97.15 6.09L95.93 5.82L95.93 5.04L98.92 5.04L98.92 11.55L100.00 11.82L100.00 12.60L97.41 12.74L97.26 11.20L97.20 11.20Q96.80 11.91 96.10 12.33Q95.40 12.74 94.60 12.74L94.60 12.74Q94.07 12.74 93.63 12.54Q93.18 12.35 92.93 11.98L92.93 11.98Q92.65 11.59 92.53 10.88Q92.41 10.18 92.41 8.97L92.41 8.97L92.41 6.09L91.48 5.82L91.48 5.04L94.19 5.04ZM101.78 11.55L101.78 6.09L100.70 5.82L100.70 5.04L103.14 5.04L103.45 6.44L103.50 6.44Q103.92 5.73 104.63 5.31Q105.34 4.90 106.16 4.90L106.16 4.90Q106.72 4.90 107.17 5.10Q107.62 5.29 107.88 5.66L107.88 5.66Q108.16 6.05 108.28 6.75Q108.40 7.46 108.40 8.67L108.40 8.67L108.40 11.55L109.48 11.82L109.48 12.60L105.69 12.60L105.69 11.82L106.62 11.55L106.62 8.85Q106.62 8.01 106.58 7.54Q106.53 7.07 106.40 6.79L106.40 6.79Q106.25 6.43 105.98 6.29Q105.71 6.15 105.35 6.15L105.35 6.15Q104.66 6.15 104.19 6.59L104.19 6.59Q103.61 7.13 103.56 8.23L103.56 8.23L103.56 11.55L104.50 11.82L104.50 12.60L100.70 12.60L100.70 11.82L101.78 11.55ZM110.24 8.83L110.24 8.83Q110.24 7.91 110.49 7.10Q110.74 6.30 111.19 5.81L111.19 5.81Q112.01 4.90 113.41 4.90L113.41 4.90Q114.07 4.90 114.58 5.14Q115.08 5.38 115.49 5.99L115.49 5.99L115.49 2.73L114.41 2.46L114.41 1.68L117.26 1.68L117.26 11.55L118.34 11.82L118.34 12.60L115.75 12.74L115.64 11.59Q115.21 12.25 114.66 12.49Q114.11 12.74 113.39 12.74L113.39 12.74Q112.62 12.74 112.09 12.51Q111.57 12.28 111.20 11.86L111.20 11.86Q110.77 11.37 110.50 10.58Q110.24 9.80 110.24 8.83ZM115.49 8.88L115.49 8.88Q115.49 8.06 115.35 7.47Q115.21 6.87 115.01 6.55L115.01 6.55Q114.58 5.85 113.72 5.85L113.72 5.85Q113.39 5.85 113.04 5.99Q112.69 6.13 112.49 6.50L112.49 6.50Q112.31 6.83 112.22 7.41Q112.13 7.99 112.13 8.71L112.13 8.71Q112.13 9.52 112.24 10.12Q112.35 10.72 112.52 11.05L112.52 11.05Q112.71 11.41 113.05 11.61Q113.39 11.80 113.79 11.80L113.79 11.80Q114.11 11.80 114.45 11.65Q114.79 11.51 115.01 11.16L115.01 11.16Q115.23 10.79 115.36 10.21Q115.49 9.62 115.49 8.88Z"></path></g><!----><g data-v-423bf9ae="" id="1d16837c-a62e-442d-a4b2-84eae349e8bd" transform="matrix(1.182607889175415,0,0,1.182607889175415,202.86959838867188,-14.215036392211914)" stroke="none" fill="white"><path d="M60.722 46.444c5.941 0 10.773-4.83 10.773-10.773 0-5.939-4.832-10.773-10.773-10.773-5.94 0-10.773 4.834-10.773 10.773 0 5.943 4.832 10.773 10.773 10.773zm0-14.917a4.149 4.149 0 014.144 4.144 4.145 4.145 0 01-4.144 4.144 4.147 4.147 0 01-4.144-4.144 4.15 4.15 0 014.144-4.144z"></path><path d="M97.688 12.13H2.313A2.314 2.314 0 000 14.443v71.479a2.31 2.31 0 002.313 2.311h95.375A2.31 2.31 0 00100 85.922V14.443a2.312 2.312 0 00-2.312-2.313zm-4.318 6.63v53.874s-9.216-15.068-10.903-17.713c-1.672-2.625-4.005-5.344-8.687-5.344-3.329 0-5.954 1.753-8.22 4.514l-6.341 7.861-10.738-16.816c-3.237-4.649-6.552-5.961-10.765-5.961-4.01 0-8.218.622-11.015 4.86L6.629 74.481V18.76H93.37zM71.775 81.603l-8.792-13.76s5.558-6.824 8.065-10.061c1.301-1.684 3.821-2.379 5.479.072 3.964 5.861 14.569 23.748 14.569 23.748H71.775zM31.592 48.49c1.179-1.727 2.81-3.099 5.71-3.099 2.762 0 4.47 1.614 5.764 3.591 5.423 8.287 20.843 32.621 20.843 32.621H9.888S25.562 57.337 31.592 48.49z"></path></g><!----></svg>